<svg version="1.2" xmlns="http://www.w3.org/2000/svg" viewBox="0 0 1199 680" width="1199" height="680"><defs><clipPath clipPathUnits="userSpaceOnUse" id="cp1"><path d="m1719.97-296.03v1271.83h-2241.76v-1271.83z"/></clipPath></defs><style>.a{fill:#001532}.b{fill:#e84e1b}</style><path fill-rule="evenodd" class="a" d="m1720-296v1271.8h-2241.8v-1271.8z"/><g clip-path="url(#cp1)"><path class="b" d="m639.1 349.1c-4.9 2.4-8.6 4.1-12.1 6-2.3 1.2-3.9 1.1-6-0.8-9.9-9.2-20-18.1-29.8-27.4-1.1-1.1-1.7-3.6-1.4-5.2 1-4.2 2.6-8.3 4.3-13.4h-47.8c7.6-12.4 17.6-22.1 29.5-29.9 12-7.8 25.2-12.8 39.1-15.9 1.6-0.4 3.3-1.7 4.4-3 7.4-8.8 14.6-17.8 21.8-26.7 6.6-8.1 12.8-16.5 19.9-24.1 34.3-37.2 76.7-60.3 125.6-72.1 6-1.5 12-2.7 19-4.3-0.5 6.2-0.7 12-1.4 17.6-8.2 62.2-38.9 111.3-87.2 150.3-8.1 6.5-15.7 13.5-23.7 20.2-3.7 3.2-5.9 7-7.5 11.6-8.9 25.4-22.5 44.3-45.1 63.2-0.5-15.2-1.1-30.2-1.6-46.1zm80.3-139.4c0.1 8.7 5.7 15.1 13.7 15.4 12.1 0.5 23.6-11.7 22.5-23.7-0.7-8-6.8-13.9-14.4-13.8-11.3 0.1-21.9 10.8-21.8 22.1z"/><path class="b" d="m449.5 492.6q-0.2-0.2-0.6-0.6c0 0-9.4-9.4-17.4-20-39.5-52.4-38.8-113.6-38.8-113.6 0.5-49.7 21.8-85.9 34-103.1 6.8-9.5 23.2-30.2 48.8-47 53.6-34.9 119.4-36.8 167.8-16.2-9.4 11.6-18.9 23.3-28.4 35.1-1.3 1.5-2.6 3.1-3.4 4.9-1.8 4.2-4.3 4.3-8.5 3.2-41.4-10.2-78.4-0.5-110.8 26.4-23.4 19.5-37.3 45-43 74.6-6.7 34.9 0.1 67.6 20.3 96.8 5.3 7.7 5.7 13 1 20.8-7.5 12.3-13.7 25.4-20.4 38.2 0 0.1-0.2 0.2-0.6 0.5z"/><path class="b" d="m758.1 357.3q-1.2 0-2.4 0c-17.5 0-34.5 0-51.5 0.1-1.2 0-3 1.4-3.6 2.6-9.4 17.9-22.2 32.9-37.2 46.3-0.6 0.5-1.1 1.2-2.3 2.6h34.8 3.2c-4.7 13.9-11.7 26.8-21.3 38.4-16.7 20.2-37.9 34.4-61.1 41.8-36.2 11.6-67.8 2.6-87.2-2.8 0 0-3.4-1.2-8.2-2.4-3.8-1.1-5.7-1.5-7.3-1.6-4-0.1-7.2 1.3-9.8 2.6-6.2 3.1-20.3 11.3-38.5 22.9 6.8 5.9 16.6 13.5 29.3 20.4 6.1 3.3 29.1 15.3 62 19.2 9.9 1.1 39.5 3.7 75-7.2 22.2-6.8 37.7-16.1 43.3-19.7 2.5-1.6 26-16.4 44.6-40.2 38.3-49 38.8-104.1 38.2-123z"/><path class="b" d="m578.8 411.8c5.9-11.5 6.5-14.3 13.8-27.6 4.3-8 10-16.2 15.4-24.1 0.7-1.1 1.3-1.9 1.7-2.5q-4.4-4.1-8.8-8.2l-12.4-11.4c-1.8 1.6-4.4 3.7-7.4 6.1-6.7 5.3-11.8 9.4-17.6 13.2-12.6 8.1-15.6 9.2-26.5 15.9-2.2 1.4-4.5 3.5-5.9 5.7-15.4 24.8-64.6 104.2-64.6 104.2-2 3.8-5.5 10.2-9.9 18.1 10.3-12.1 21.3-24.4 32.8-37q13.1-14.1 25.8-27.2l25.7-28.4q0.4-0.8 0.6-1.6c0.5-1.6 0.8-3.3 0.7-5.2-0.2-4.5 5.1-9.2 9.7-9.6 1.2-0.1 2.4 0.1 3.5 0.5 0.4 0.2 0.9 0.5 1.4 1 0.6 0.6 1 1.2 1.1 1.3q0 0.1 0 0.1c0.5 1 0.8 2.1 0.8 3.3-0.1 4.6-4.3 10.3-8.8 10.4-1.9 0.1-3.6 0.5-5.2 1.1q-0.8 0.3-1.5 0.7l-26.3 27.9q-11.9 13.6-25.2 27.8c-11.8 12.6-23.5 24.3-34.8 35.2 7.2-4.4 13.2-8.1 17.7-10.9 0 0 69.1-50.5 98.9-72.5 2.1-1.5 4.1-4 5.3-6.3z"/></g></svg>