<?xml version="1.0" encoding="UTF-8" standalone="no"?>
<svg
   xmlns:dc="http://purl.org/dc/elements/1.1/"
   xmlns:cc="http://creativecommons.org/ns#"
   xmlns:rdf="http://www.w3.org/1999/02/22-rdf-syntax-ns#"
   xmlns:svg="http://www.w3.org/2000/svg"
   xmlns="http://www.w3.org/2000/svg"
   viewBox="0 0 1198.592 680"
   height="680"
   width="1198.592"
   xml:space="preserve"
   id="svg2"
   version="1.1"><metadata
     id="metadata8"><rdf:RDF><cc:Work
         rdf:about=""><dc:format>image/svg+xml</dc:format><dc:type
           rdf:resource="http://purl.org/dc/dcmitype/StillImage" /></cc:Work></rdf:RDF></metadata><defs
     id="defs6"><clipPath
       id="clipPath20"
       clipPathUnits="userSpaceOnUse"><path
         id="path18"
         d="M 0,510 H 898.944 V 0 H 0 Z" /></clipPath></defs><g
     transform="matrix(1.3333333,0,0,-1.3333333,0,680)"
     id="g10"><path
       id="path12"
       style="fill:#001532;fill-opacity:1;fill-rule:nonzero;stroke:none"
       d="M 0,0 H 898.944 V 509.999 H 0 Z" /><g
       id="g14"><g
         clip-path="url(#clipPath20)"
         id="g16"><g
           transform="translate(349.101,283.419)"
           id="g22"><path
             id="path24"
             style="fill:#ffffff;fill-opacity:1;fill-rule:nonzero;stroke:none"
             d="m 0,0 c -2.234,2.463 -5.214,4.01 -8.65,4.01 -6.646,0 -11.802,-5.614 -11.802,-12.489 0,-6.817 5.156,-12.545 11.802,-12.545 4.239,0 9.566,2.692 9.566,6.816 H -9.682 v 6.818 h 20.28 c 0,-14.78 -7.907,-21.311 -19.248,-21.311 -11.286,0 -20.223,9.109 -20.223,20.222 0,11.172 8.937,20.28 20.223,20.28 6.129,0 11.399,-2.52 14.837,-6.473 z" /></g><g
           transform="translate(374.249,287.372)"
           id="g26"><path
             id="path28"
             style="fill:#ffffff;fill-opacity:1;fill-rule:nonzero;stroke:none"
             d="m 0,0 v -11.114 h 7.104 c 3.265,0 4.984,3.036 4.984,5.557 C 12.088,-3.094 10.54,0 7.333,0 Z M 20.795,-32.081 H 10.713 L 1.891,-18.447 H 0 V -32.081 H -8.422 V 7.39 H 7.733 c 8.937,0 13.12,-6.474 13.12,-12.947 0,-5.557 -3.094,-11.171 -9.854,-12.546 z" /></g><g
           transform="translate(424.087,269.384)"
           id="g30"><path
             id="path32"
             style="fill:#ffffff;fill-opacity:1;fill-rule:nonzero;stroke:none"
             d="M 0,0 V 25.378 H 8.422 V 0 c 0,-8.937 -7.161,-14.666 -15.238,-14.666 -8.079,0 -15.354,5.729 -15.354,14.666 v 25.378 h 8.536 V 0 c 0,-4.067 3.322,-6.76 6.818,-6.76 C -3.322,-6.76 0,-4.067 0,0" /></g><g
           transform="translate(449.807,287.372)"
           id="g34"><path
             id="path36"
             style="fill:#ffffff;fill-opacity:1;fill-rule:nonzero;stroke:none"
             d="m 0,0 v -11.114 h 7.391 c 3.264,0 4.983,3.036 4.983,5.557 C 12.374,-3.094 10.827,0 7.619,0 Z M -8.421,7.39 H 7.791 c 8.994,0 13.005,-6.474 13.005,-12.947 0,-6.589 -4.011,-12.89 -13.005,-12.89 H 0 v -13.634 h -8.421 z" /></g><g
           transform="translate(494.261,263.025)"
           id="g38"><path
             id="path40"
             style="fill:#ffffff;fill-opacity:1;fill-rule:nonzero;stroke:none"
             d="m 0,0 c 6.531,0 11.687,5.328 11.687,11.916 0,6.588 -5.156,11.973 -11.687,11.973 -6.588,0 -11.63,-5.385 -11.63,-11.973 C -11.63,5.328 -6.588,0 0,0 m 0,32.196 c 11.229,0 20.051,-9.109 20.051,-20.28 C 20.051,0.803 11.229,-8.307 0,-8.307 c -11.171,0 -19.993,9.11 -19.993,20.223 0,11.171 8.822,20.28 19.993,20.28" /></g><g
           transform="translate(569.42,263.368)"
           id="g42"><path
             id="path44"
             style="fill:#ffffff;fill-opacity:1;fill-rule:nonzero;stroke:none"
             d="m 0,0 c -3.438,-5.271 -9.453,-8.65 -16.613,-8.65 -11.229,0 -19.823,9.109 -19.823,20.222 0,11.172 8.594,20.28 19.823,20.28 7.102,0 13.003,-3.323 16.44,-8.364 l -6.816,-4.697 c -2.12,3.15 -5.5,5.155 -9.624,5.155 -6.588,0 -11.402,-5.499 -11.402,-12.374 0,-6.817 4.814,-12.316 11.402,-12.316 4.124,0 7.733,2.234 9.853,5.442 z" /></g><g
           transform="translate(583.74,287.372)"
           id="g46"><path
             id="path48"
             style="fill:#ffffff;fill-opacity:1;fill-rule:nonzero;stroke:none"
             d="m 0,0 v -11.114 h 7.103 c 3.265,0 4.984,3.036 4.984,5.557 C 12.087,-3.094 10.54,0 7.332,0 Z M 20.795,-32.081 H 10.712 L 1.89,-18.447 H 0 V -32.081 H -8.422 V 7.39 H 7.733 c 8.937,0 13.119,-6.474 13.119,-12.947 0,-5.557 -3.093,-11.171 -9.853,-12.546 z" /></g><g
           transform="translate(611.809,294.762)"
           id="g50"><path
             id="path52"
             style="fill:#ffffff;fill-opacity:1;fill-rule:nonzero;stroke:none"
             d="M 0,0 H 24.978 V -7.39 H 8.364 v -8.994 H 22.915 V -23.66 H 8.364 v -8.421 h 17.129 v -7.39 l -25.493,0 z" /></g><g
           transform="translate(663.193,271.905)"
           id="g54"><path
             id="path56"
             style="fill:#ffffff;fill-opacity:1;fill-rule:nonzero;stroke:none"
             d="M 0,0 -4.182,13.749 -8.191,0 Z m -10.941,-7.275 -3.495,-9.338 h -8.936 l 14.665,39.47 H 0.402 L 15.01,-16.613 H 6.187 l -3.494,9.338 z" /></g><g
           transform="translate(690.977,287.372)"
           id="g58"><path
             id="path60"
             style="fill:#ffffff;fill-opacity:1;fill-rule:nonzero;stroke:none"
             d="m 0,0 v -11.114 h 7.103 c 3.265,0 4.984,3.036 4.984,5.557 C 12.087,-3.094 10.54,0 7.332,0 Z M 20.795,-32.081 H 10.712 L 1.89,-18.447 H 0 V -32.081 H -8.422 V 7.39 H 7.733 c 8.937,0 13.119,-6.474 13.119,-12.947 0,-5.557 -3.093,-11.171 -9.853,-12.546 z" /></g><g
           transform="translate(331.457,218.314)"
           id="g62"><path
             id="path64"
             style="fill:#ffffff;fill-opacity:1;fill-rule:nonzero;stroke:none"
             d="m 0,0 c 4.998,0 7.585,3.88 7.585,8.948 0,5.069 -2.587,9.053 -7.585,9.053 H -6.082 V 0 Z M -9.333,-3.041 V 21.042 H 0 C 6.851,21.042 10.835,15.8 10.835,8.948 10.835,2.097 6.851,-3.041 0,-3.041 Z" /></g><path
           id="path66"
           style="fill:#ffffff;fill-opacity:1;fill-rule:nonzero;stroke:none"
           d="m 350.686,215.273 h -3.251 v 24.083 h 3.251 z" /><g
           transform="translate(359.042,222.229)"
           id="g68"><path
             id="path70"
             style="fill:#ffffff;fill-opacity:1;fill-rule:nonzero;stroke:none"
             d="m 0,0 c 0,-2.098 2.132,-4.265 5.173,-4.265 3.076,0 4.579,1.713 4.858,3.531 0.175,2.587 -1.922,3.809 -4.089,4.299 L 2.831,4.334 c -5.139,1.293 -5.872,4.194 -5.872,6.292 0,4.055 3.705,6.78 7.795,6.78 4.369,0 7.76,-2.725 7.76,-7.06 H 9.263 c 0,2.412 -1.888,3.95 -4.544,3.95 -2.377,0 -4.509,-1.433 -4.509,-3.635 0,-1.049 0.384,-2.622 3.425,-3.355 l 3.146,-0.77 c 4.509,-1.153 6.956,-3.67 6.432,-7.55 -0.454,-3.496 -3.286,-6.292 -8.04,-6.292 -4.894,0 -8.424,3.531 -8.424,7.306 z" /></g><g
           transform="translate(391.551,239.356)"
           id="g72"><path
             id="path74"
             style="fill:#ffffff;fill-opacity:1;fill-rule:nonzero;stroke:none"
             d="m 0,0 v -3.041 h -11.01 v -7.689 h 9.613 v -3.041 h -9.613 v -7.271 H 0.35 v -3.041 H -14.261 V 0 Z" /></g><g
           transform="translate(403.195,242.817)"
           id="g76"><path
             id="path78"
             style="fill:#ffffff;fill-opacity:1;fill-rule:nonzero;stroke:none"
             d="m 0,0 h -2.132 c 0.175,3.075 1.712,4.089 3.075,4.089 0.979,0 1.504,-0.454 2.029,-0.838 0.384,-0.315 0.699,-0.595 1.083,-0.595 0.384,0 0.944,0.315 0.979,1.433 H 7.166 C 6.991,1.014 5.383,0.104 4.055,0.104 3.111,0.104 2.587,0.594 2.063,0.979 1.643,1.259 1.328,1.538 0.943,1.538 0.56,1.538 0.035,1.153 0,0 M 8.074,-27.544 -2.9,-9.402 v -18.142 h -3.251 v 24.083 h 3.215 L 7.935,-21.462 v 18.001 h 3.251 v -24.083 z" /></g><g
           transform="translate(431.548,218.069)"
           id="g80"><path
             id="path82"
             style="fill:#ffffff;fill-opacity:1;fill-rule:nonzero;stroke:none"
             d="m 0,0 c 5.068,0 8.948,4.055 8.948,9.193 0,5.138 -3.88,9.228 -8.948,9.228 -5.034,0 -8.913,-4.09 -8.913,-9.228 C -8.913,4.055 -5.034,0 0,0 M 0,21.566 C 6.886,21.566 12.233,16.01 12.233,9.193 12.233,2.342 6.886,-3.146 0,-3.146 c -6.852,0 -12.164,5.488 -12.164,12.339 0,6.817 5.312,12.373 12.164,12.373" /></g><g
           transform="translate(463.886,215.273)"
           id="g84"><path
             id="path86"
             style="fill:#ffffff;fill-opacity:1;fill-rule:nonzero;stroke:none"
             d="m 0,0 v 11.08 l -9.124,13.003 h 3.881 l 6.921,-9.752 6.99,9.752 h 3.915 L 3.355,11.08 V 0 Z" /></g><g
           transform="translate(490.805,236.315)"
           id="g88"><path
             id="path90"
             style="fill:#ffffff;fill-opacity:1;fill-rule:nonzero;stroke:none"
             d="m 0,0 v -8.983 h 6.117 c 2.936,0 4.125,2.237 4.125,4.474 C 10.242,-2.307 9.088,0 6.292,0 Z m 6.327,3.041 c 5.103,0 7.166,-3.775 7.166,-7.55 0,-3.775 -2.063,-7.515 -7.166,-7.515 H 0 v -9.018 H -3.285 V 3.041 Z" /></g><g
           transform="translate(511.991,236.315)"
           id="g92"><path
             id="path94"
             style="fill:#ffffff;fill-opacity:1;fill-rule:nonzero;stroke:none"
             d="m 0,0 v -8.983 h 5.732 c 2.937,0 4.02,2.237 4.02,4.474 C 9.752,-2.307 8.669,0 5.873,0 Z m 13.248,-21.042 h -3.95 l -6.222,9.018 H 0 v -9.018 H -3.285 V 3.041 h 9.263 c 5.068,0 7.129,-3.775 7.129,-7.55 0,-3.565 -1.782,-7.025 -6.291,-7.41 z" /></g><g
           transform="translate(540.936,218.069)"
           id="g96"><path
             id="path98"
             style="fill:#ffffff;fill-opacity:1;fill-rule:nonzero;stroke:none"
             d="m 0,0 c 5.068,0 8.948,4.055 8.948,9.193 0,5.138 -3.88,9.228 -8.948,9.228 -5.033,0 -8.913,-4.09 -8.913,-9.228 C -8.913,4.055 -5.033,0 0,0 M 0,21.566 C 6.886,21.566 12.234,16.01 12.234,9.193 12.234,2.342 6.886,-3.146 0,-3.146 c -6.851,0 -12.164,5.488 -12.164,12.339 0,6.817 5.313,12.373 12.164,12.373" /></g><g
           transform="translate(567.507,218.314)"
           id="g100"><path
             id="path102"
             style="fill:#ffffff;fill-opacity:1;fill-rule:nonzero;stroke:none"
             d="m 0,0 c 4.999,0 7.585,3.88 7.585,8.948 0,5.069 -2.586,9.053 -7.585,9.053 H -6.082 V 0 Z M -9.333,-3.041 V 21.042 H 0 C 6.851,21.042 10.835,15.8 10.835,8.948 10.835,2.097 6.851,-3.041 0,-3.041 Z" /></g><g
           transform="translate(597.572,223.557)"
           id="g104"><path
             id="path106"
             style="fill:#ffffff;fill-opacity:1;fill-rule:nonzero;stroke:none"
             d="M 0,0 V 15.799 H 3.285 V 0 c 0,-5.243 -4.09,-8.634 -8.808,-8.634 -4.789,0 -8.809,3.391 -8.809,8.634 v 15.799 h 3.286 V 0 c 0,-3.355 2.552,-5.488 5.523,-5.488 C -2.552,-5.488 0,-3.355 0,0" /></g><g
           transform="translate(626.937,219.082)"
           id="g108"><path
             id="path110"
             style="fill:#ffffff;fill-opacity:1;fill-rule:nonzero;stroke:none"
             d="m 0,0 c -2.133,-2.551 -5.348,-4.159 -9.123,-4.159 -6.815,0 -12.199,5.487 -12.199,12.339 0,6.816 5.384,12.373 12.199,12.373 3.74,0 6.921,-1.573 9.054,-4.089 l -2.448,-2.027 c -1.643,1.782 -3.95,2.97 -6.606,2.97 -5.068,0 -8.948,-4.09 -8.948,-9.227 0,-5.139 3.88,-9.194 8.948,-9.194 2.691,0 5.033,1.155 6.676,3.077 z" /></g><g
           transform="translate(650.815,219.082)"
           id="g112"><path
             id="path114"
             style="fill:#ffffff;fill-opacity:1;fill-rule:nonzero;stroke:none"
             d="m 0,0 c -2.133,-2.551 -5.349,-4.159 -9.123,-4.159 -6.816,0 -12.199,5.487 -12.199,12.339 0,6.816 5.383,12.373 12.199,12.373 3.739,0 6.921,-1.573 9.053,-4.089 l -2.447,-2.027 c -1.643,1.782 -3.95,2.97 -6.606,2.97 -5.068,0 -8.948,-4.09 -8.948,-9.227 0,-5.139 3.88,-9.194 8.948,-9.194 2.691,0 5.033,1.155 6.676,3.077 z" /></g><path
           id="path116"
           style="fill:#ffffff;fill-opacity:1;fill-rule:nonzero;stroke:none"
           d="m 658.195,215.273 h -3.251 v 24.083 h 3.251 z" /><g
           transform="translate(676.163,242.397)"
           id="g118"><path
             id="path120"
             style="fill:#ffffff;fill-opacity:1;fill-rule:nonzero;stroke:none"
             d="M 0,0 H -3.042 L 0.35,5.383 h 3.809 z m -0.805,-24.328 c 5.069,0 8.949,4.055 8.949,9.193 0,5.138 -3.88,9.228 -8.949,9.228 -5.033,0 -8.913,-4.09 -8.913,-9.228 0,-5.138 3.88,-9.193 8.913,-9.193 m 0,21.566 c 6.886,0 12.235,-5.556 12.235,-12.373 0,-6.851 -5.349,-12.339 -12.235,-12.339 -6.85,0 -12.164,5.488 -12.164,12.339 0,6.817 5.314,12.373 12.164,12.373" /></g><g
           transform="translate(706.822,215.273)"
           id="g122"><path
             id="path124"
             style="fill:#ffffff;fill-opacity:1;fill-rule:nonzero;stroke:none"
             d="M 0,0 -10.976,18.142 V 0 h -3.251 v 24.083 h 3.216 L -0.14,6.082 V 24.083 H 3.111 L 3.111,0 Z" /></g><g
           transform="translate(289.77,300.049)"
           id="g126"><path
             id="path128"
             style="fill:#e84e1b;fill-opacity:1;fill-rule:nonzero;stroke:none"
             d="m 0,0 c 0.021,-3.025 1.995,-5.255 4.741,-5.357 4.197,-0.156 8.208,4.074 7.821,8.246 -0.259,2.778 -2.375,4.8 -4.998,4.775 C 3.641,7.625 -0.027,3.909 0,0 m -27.866,-48.371 c -1.688,-0.822 -2.966,-1.402 -4.2,-2.063 -0.794,-0.426 -1.358,-0.407 -2.074,0.262 -3.422,3.194 -6.93,6.296 -10.339,9.504 -0.394,0.371 -0.6,1.253 -0.474,1.802 0.335,1.462 0.899,2.872 1.488,4.653 h -16.587 c 2.641,4.289 6.093,7.679 10.244,10.388 4.156,2.71 8.714,4.42 13.538,5.503 0.568,0.128 1.158,0.573 1.541,1.035 2.554,3.071 5.05,6.191 7.575,9.287 2.279,2.794 4.437,5.7 6.879,8.344 11.902,12.891 26.63,20.926 43.599,25.027 2.075,0.502 4.166,0.935 6.589,1.476 -0.171,-2.161 -0.236,-4.148 -0.495,-6.109 -2.852,-21.564 -13.492,-38.615 -30.254,-52.13 -2.802,-2.259 -5.458,-4.699 -8.209,-7.024 -1.287,-1.087 -2.045,-2.427 -2.605,-4.022 -3.097,-8.819 -7.811,-15.355 -15.651,-21.908 -0.186,5.254 -0.37,10.469 -0.565,15.975" /></g><g
           transform="translate(196.123,201.91)"
           id="g130"><path
             id="path132"
             style="fill:#e84e1b;fill-opacity:1;fill-rule:nonzero;stroke:none"
             d="m 0,0 c -0.041,0.041 -0.117,0.116 -0.211,0.21 0,0 -3.239,3.229 -6.032,6.939 -13.684,18.175 -13.453,39.399 -13.453,39.399 0.188,17.235 7.576,29.813 11.797,35.752 2.355,3.313 8.029,10.504 16.94,16.319 18.569,12.12 41.405,12.773 58.201,5.621 -3.26,-4.014 -6.571,-8.081 -9.866,-12.16 -0.433,-0.537 -0.897,-1.091 -1.162,-1.715 -0.621,-1.47 -1.482,-1.488 -2.958,-1.121 C 38.888,92.808 26.058,89.428 14.808,80.081 6.702,73.346 1.864,64.472 -0.105,54.214 -2.428,42.119 -0.055,30.756 6.937,20.612 8.778,17.939 8.914,16.123 7.282,13.427 4.692,9.149 2.556,4.599 0.224,0.165 0.2,0.119 0.133,0.097 0,0" /></g><g
           transform="translate(303.189,248.836)"
           id="g134"><path
             id="path136"
             style="fill:#e84e1b;fill-opacity:1;fill-rule:nonzero;stroke:none"
             d="m 0,0 c -0.278,-0.001 -0.558,-0.002 -0.836,-0.002 -6.052,0 -11.955,0.019 -17.857,-0.039 -0.429,-0.005 -1.034,-0.474 -1.249,-0.888 -3.245,-6.209 -7.69,-11.434 -12.893,-16.054 -0.218,-0.194 -0.387,-0.442 -0.813,-0.936 h 12.062 1.134 c -1.625,-4.816 -4.075,-9.278 -7.394,-13.307 -5.785,-7.021 -13.147,-11.926 -21.21,-14.51 -12.559,-4.027 -23.524,-0.901 -30.248,0.971 -0.012,0.003 -1.194,0.421 -2.828,0.859 -1.334,0.356 -2.004,0.52 -2.544,0.539 -1.404,0.047 -2.517,-0.446 -3.407,-0.9 -2.145,-1.089 -7.037,-3.929 -13.346,-7.949 2.358,-2.057 5.735,-4.664 10.151,-7.069 2.119,-1.154 10.087,-5.331 21.511,-6.651 3.442,-0.397 13.708,-1.291 26.027,2.491 7.693,2.361 13.061,5.588 15.011,6.815 0.89,0.561 9.019,5.692 15.47,13.944 C 0.041,-25.674 0.232,-6.557 0,0" /></g><g
           transform="translate(240.982,229.939)"
           id="g138"><path
             id="path140"
             style="fill:#e84e1b;fill-opacity:1;fill-rule:nonzero;stroke:none"
             d="m 0,0 c 2.056,3.971 2.276,4.95 4.786,9.566 1.508,2.773 3.468,5.622 5.354,8.362 0.251,0.364 0.461,0.666 0.604,0.871 -1.025,0.947 -2.051,1.893 -3.076,2.84 L 3.386,25.592 C 2.739,25.047 1.854,24.314 0.791,23.467 c -2.308,-1.839 -4.077,-3.249 -6.105,-4.57 -4.343,-2.826 -5.412,-3.183 -9.165,-5.511 -0.778,-0.484 -1.575,-1.215 -2.058,-1.99 -5.356,-8.597 -22.41,-36.159 -22.41,-36.159 -0.712,-1.311 -1.914,-3.515 -3.442,-6.271 3.588,4.192 7.384,8.481 11.396,12.842 3.013,3.273 5.993,6.421 8.931,9.443 l 8.934,9.84 c 0.077,0.183 0.149,0.371 0.21,0.565 0.171,0.551 0.256,1.147 0.228,1.807 -0.068,1.573 1.781,3.178 3.381,3.331 0.417,0.04 0.819,-0.035 1.183,-0.193 C -7.988,6.533 -7.812,6.429 -7.636,6.27 -7.399,6.057 -7.274,5.845 -7.249,5.803 -7.248,5.801 -7.246,5.799 -7.245,5.797 -7.063,5.45 -6.96,5.061 -6.968,4.648 -6.997,3.04 -8.454,1.071 -10.026,1.018 -10.687,0.995 -11.273,0.864 -11.809,0.65 -11.998,0.575 -12.18,0.489 -12.356,0.397 l -9.117,-9.67 c -2.739,-3.144 -5.645,-6.364 -8.721,-9.637 -4.119,-4.382 -8.164,-8.455 -12.088,-12.233 2.482,1.525 4.579,2.819 6.154,3.791 0,0 23.965,17.53 34.304,25.145 C -1.089,-1.666 -0.421,-0.813 0,0" /></g></g></g></g></svg>